# Blender 5.0.1
# www.blender.org
mtllib FloorT.mtl
o Cube
v -4000.000000 -0.051304 -4010.000000
v -4000.000000 -0.050697 3990.000000
v -4000.000000 -0.049304 -4010.000000
v -4000.000000 -0.048697 3990.000000
v 4000.000000 -0.051304 -4010.000000
v 4000.000000 -0.050697 3990.000000
v 4000.000000 -0.049304 -4010.000000
v 4000.000000 -0.048697 3990.000000
vn -1.0000 -0.0000 -0.0000
vn -0.0000 1.0000 -0.0000
vn 1.0000 -0.0000 -0.0000
vn -0.0000 -1.0000 -0.0000
vn -0.0000 -0.0000 -1.0000
vn -0.0000 -0.0000 1.0000
vt 0.500013 0.000000
vt 0.500025 0.500000
vt 0.500013 0.500000
vt 0.000000 0.500000
vt 0.500000 0.000000
vt 0.500000 0.500000
vt 0.500025 1.000000
vt 0.500013 1.000000
vt 0.000000 1.000000
vt 0.500000 1.000000
vt 0.500012 0.500000
vt 0.500012 1.000000
vt 0.500025 0.000000
vt 0.000000 0.000000
s 1
usemtl FloorMat.001
f 2/1/1 3/2/1 1/3/1
f 4/4/2 7/5/2 3/6/2
f 8/3/3 5/7/3 7/8/3
f 6/9/4 1/6/4 5/10/4
f 7/11/5 1/5/5 3/1/5
f 4/12/6 6/6/6 8/11/6
f 2/1/1 4/13/1 3/2/1
f 4/4/2 8/14/2 7/5/2
f 8/3/3 6/2/3 5/7/3
f 6/9/4 2/4/4 1/6/4
f 7/11/5 5/6/5 1/5/5
f 4/12/6 2/10/6 6/6/6
